<?xml version="1.0" encoding="UTF-8"?>
<svg id="Layer_2" data-name="Layer 2" xmlns="http://www.w3.org/2000/svg" viewBox="0 0 21.8 18.97">
  <defs>
    <style>
      .cls-1 {
        fill: #231f20;
      }
    </style>
  </defs>
  <g id="Layer_1-2" data-name="Layer 1">
    <g>
      <path class="cls-1" d="M19.07,9.47c.07-.45.1-.9.1-1.37H0c0,4.09,2.56,7.58,6.16,8.96-.76.5-1.22,1.18-1.22,1.91h9.29c0-.73-.46-1.41-1.22-1.91,1.03-.39,1.97-.96,2.8-1.67.64.62,1.51,1.02,2.48,1.02,1.94,0,3.51-1.58,3.51-3.52,0-1.66-1.17-3.07-2.73-3.42ZM15.61,12.72c-.34.43-.7.82-1.11,1.16-1.35,1.17-3.1,1.81-4.91,1.81-3.49,0-6.44-2.37-7.32-5.59h14.64c-.06.21-.12.41-.2.62-.26.7-.63,1.38-1.1,2ZM18.29,14.41c-.43,0-.82-.18-1.1-.47.58-.76,1.06-1.61,1.4-2.53.69.14,1.21.75,1.21,1.48,0,.84-.68,1.52-1.51,1.52Z"/>
      <path class="cls-1" d="M6.58,7.38l-1.53-1.29c.06-.07.64-.87.12-2.06-.87-1.99.03-3.47.69-4.03l1.31,1.51c-.11.1-.63.66-.17,1.72.83,1.9.12,3.5-.42,4.15Z"/>
      <path class="cls-1" d="M9.36,7.38l-1.53-1.29c.06-.07.64-.87.12-2.06-.87-1.99.03-3.47.69-4.03l1.31,1.51c-.11.1-.63.66-.17,1.72.83,1.9.12,3.5-.42,4.15Z"/>
      <path class="cls-1" d="M12.09,7.38l-1.53-1.29c.06-.07.64-.87.12-2.06-.87-1.99.03-3.47.69-4.03l1.31,1.51c-.11.1-.63.66-.17,1.72.83,1.9.12,3.5-.42,4.15Z"/>
    </g>
  </g>
</svg>