<?xml version="1.0" encoding="UTF-8"?>
<svg id="Layer_2" data-name="Layer 2" xmlns="http://www.w3.org/2000/svg" viewBox="0 0 16.94 19.4">
  <defs>
    <style>
      .cls-1 {
        fill: #231f20;
      }
    </style>
  </defs>
  <g id="Layer_1-2" data-name="Layer 1">
    <g>
      <path class="cls-1" d="M14.94,9.61v7.79H2v-7.79h12.94M15.97,7.61H.97c-.54,0-.97.43-.97.97v9.85c0,.54.43.97.97.97h15c.54,0,.97-.43.97-.97v-9.85c0-.54-.43-.97-.97-.97h0Z"/>
      <path class="cls-1" d="M14.65,9.31h-2v-3.46c0-2.12-1.87-3.85-4.18-3.85s-4.18,1.73-4.18,3.85v3.46h-2v-3.46C2.29,2.62,5.06,0,8.47,0s6.18,2.62,6.18,5.85v3.46Z"/>
      <circle class="cls-1" cx="8.47" cy="13.51" r="1.26"/>
    </g>
  </g>
</svg>