<?xml version="1.0" encoding="UTF-8"?>
<svg id="Layer_2" data-name="Layer 2" xmlns="http://www.w3.org/2000/svg" viewBox="0 0 20.52 16.26">
  <defs>
    <style>
      .cls-1 {
        fill: #231f20;
      }
    </style>
  </defs>
  <g id="Layer_1-2" data-name="Layer 1">
    <g>
      <path class="cls-1" d="M16.06,4.33l-.71-3.64c-.07-.41-.43-.69-.83-.69-.05,0-.11,0-.16.01L.69,2.67c-.46.09-.76.53-.67.99l1.96,10.11c.08.4.43.68.83.68.05,0,.11-.01.17-.02l.54-.1,5.43-1.06,7.13-1.38.56-.11c.46-.09.76-.54.67-.99l-1.25-6.46ZM14.39,10.48l-.41.08c-1.23-.83-4.45-3.71-5.31-3.49-.79.19-2.16,3.72-2.65,5.03l-2.52.49L1.86,4.19,13.84,1.86l.54,2.79.97,5.02c-1.48-1.13-3.88-3.15-4.61-2.97-.19.05-.41.28-.64.64,1.27.68,3.29,2.43,4.29,3.14Z"/>
      <path class="cls-1" d="M20.5,12.6l-1.25-6.46-.71-3.64c-.08-.41-.43-.69-.83-.69-.05,0-.11,0-.16.02l-1.26.25.32,1.67.42-.08.55,2.8,1.09,5.61-6.85,1.32-5.13,1.01-.02-.09-1.68.33.18.93c.08.4.43.68.82.68.06,0,.11,0,.17-.02l.55-.1,5.43-1.06,7.13-1.38.56-.11c.46-.09.76-.54.67-.99Z"/>
      <circle class="cls-1" cx="5" cy="5.86" r="1.21"/>
    </g>
  </g>
</svg>